<svg version="1.0" xmlns="http://www.w3.org/2000/svg" width="545.000000pt" height="458.000000pt" viewBox="0 0 545.000000 458.000000" preserveAspectRatio="xMidYMid meet">

<g transform="translate(0.000000,458.000000) scale(0.100000,-0.100000)" fill="#FFFFFF" stroke="none">
<path d="M1461 3746 c2 -2 33 -16 69 -30 163 -66 317 -195 397 -331 50 -84 96&#xA;-213 113 -313 13 -81 18 -363 6 -399 -9 -28 -50 -40 -72 -22 -9 7 -33 38 -54&#xA;69 -55 81 -174 189 -255 231 -121 63 -292 86 -420 55 -48 -11 -50 -13 -49 -46&#xA;3 -90 90 -246 199 -355 124 -124 254 -180 448 -192 87 -5 100 -9 113 -28 13&#xA;-20 13 -31 -5 -101 -50 -201 -61 -413 -27 -513 12 -33 86 -155 190 -310 194&#xA;-290 274 -437 283 -525 5 -47 11 -61 36 -82 45 -37 116 -71 209 -98 l82 -24&#xA;69 19 c87 25 183 68 223 102 26 22 32 36 37 83 9 88 88 235 283 525 95 141&#xA;180 278 190 305 33 94 19 347 -31 538 -14 52 -14 62 -1 81 13 20 26 23 113 28&#xA;249 14 437 125 561 333 54 91 99 210 89 236 -12 33 -195 49 -313 27 -73 -13&#xA;-204 -75 -265 -126 -55 -47 -131 -131 -164 -183 -40 -64 -95 -77 -111 -28 -14&#xA;47 -7 351 11 433 21 98 70 223 117 296 86 134 237 258 387 315 l74 29 -134 3&#xA;c-218 5 -412 -41 -584 -138 -93 -53 -249 -201 -315 -299 -54 -81 -131 -244&#xA;-160 -338 -24 -78 -37 -95 -75 -95 -39 0 -52 17 -85 118 -139 415 -423 670&#xA;-824 739 -77 13 -367 22 -355 11z m907 -1635 c75 -39 172 -157 172 -212 0 -59&#xA;-71 -67 -105 -11 -34 58 -87 113 -127 133 -46 23 -56 69 -20 97 22 16 36 15&#xA;80 -7z m956 0 c26 -28 16 -62 -24 -88 -66 -42 -90 -65 -117 -111 -32 -56 -39&#xA;-62 -76 -62 -44 0 -56 39 -29 95 28 57 85 121 141 157 53 33 81 35 105 9z&#xA;m-376 -774 c6 -5 12 -22 12 -38 0 -39 -73 -92 -157 -115 -53 -14 -71 -15 -125&#xA;-4 -74 14 -155 55 -164 82 -19 61 31 95 88 60 88 -53 162 -52 247 3 51 32 70&#xA;35 99 12z"/>
</g>
</svg>