<?xml version="1.0" standalone="no"?>
<!DOCTYPE svg PUBLIC "-//W3C//DTD SVG 20010904//EN"
 "http://www.w3.org/TR/2001/REC-SVG-20010904/DTD/svg10.dtd">
<svg version="1.0" xmlns="http://www.w3.org/2000/svg"
 width="197.000000pt" height="209.000000pt" viewBox="0 0 197.000000 209.000000"
 preserveAspectRatio="xMidYMid meet">

<g transform="translate(0.000000,209.000000) scale(0.100000,-0.100000)"
fill="#000000" stroke="none">
<path d="M705 1890 c-259 -55 -439 -181 -537 -377 -57 -112 -71 -179 -66 -299
3 -82 8 -100 42 -169 87 -175 244 -267 481 -282 l103 -6 -5 -36 c-3 -20 -28
-155 -55 -301 -60 -319 -58 -305 -33 -303 21 1 257 61 262 66 1 2 14 104 28
228 14 123 30 251 35 284 6 33 10 63 10 66 0 3 29 9 64 13 146 15 335 81 453
158 168 110 296 287 344 479 31 120 24 271 -15 348 -37 73 -79 108 -155 131
-206 64 -503 -27 -672 -207 -74 -79 -119 -169 -153 -305 -22 -87 -74 -378 -92
-517 l-7 -53 -55 5 c-30 3 -78 17 -107 32 -249 121 -272 579 -43 830 62 68
136 118 233 159 85 36 78 30 70 55 -8 25 -14 25 -130 1z m765 -81 c71 -40 109
-139 110 -285 0 -235 -130 -486 -314 -606 -58 -37 -173 -79 -250 -91 l-38 -6
6 52 c14 104 107 554 132 636 51 167 106 250 196 295 63 32 108 33 158 5z"/>
</g>
</svg>
